<svg xmlns="http://www.w3.org/2000/svg" viewBox="0 0 26.93 19.11"><defs><style>.cls-1{fill:#909090;}.cls-2{fill:#231f20;}</style></defs><g id="Layer_2" data-name="Layer 2"><g id="Layer_1-2" data-name="Layer 1"><path class="cls-1" d="M20.45.13l-6.3,3.59-.22.13L13.62,4l0,0-.86-.45L6.55,0,0,3.72l0,7.51L6.48,15l.46.31,6.49,3.79,6.51-3.73.43-.24.22-.13,6.3-3.59,0-7.51Z"/><polyline class="cls-2" points="2.96 5.9 5.3 5.9 5.3 3.57 7.63 3.57 7.63 5.9 9.96 5.9 9.96 8.24 7.63 8.24 7.63 10.57 5.3 10.57 5.3 8.24 2.96 8.24 2.96 5.9"/><polygon class="cls-2" points="19.96 5.57 20.96 5.57 20.96 4.57 21.96 4.57 21.96 5.57 22.96 5.57 22.96 6.57 21.96 6.57 21.96 7.57 20.96 7.57 20.96 6.57 19.96 6.57 19.96 5.57"/><rect class="cls-2" x="15.96" y="8.57" width="3" height="2"/></g></g></svg>