<svg xmlns="http://www.w3.org/2000/svg" viewBox="0 0 28 20.67"><defs><style>.cls-1{fill:#808285;}</style></defs><g id="Layer_2" data-name="Layer 2"><g id="Layer_1-2" data-name="Layer 1"><circle class="cls-1" cx="14.06" cy="10.33" r="4"/><path class="cls-1" d="M21.86,18.7l1.76,1.77A14,14,0,0,0,23.76.3L22,2.06a11.48,11.48,0,0,1-.14,16.64Z"/><path class="cls-1" d="M4.6,20.67,6.36,18.9a11.46,11.46,0,0,1,0-17.13L4.56,0a14,14,0,0,0,0,20.67Z"/><path class="cls-1" d="M8.13,17.12,9.9,15.35a6.5,6.5,0,0,1-.07-10L8.07,3.55a9,9,0,0,0,.06,13.57Z"/><path class="cls-1" d="M18.32,15.15l1.77,1.77A9,9,0,0,0,20.2,3.79L18.43,5.56a6.47,6.47,0,0,1-.11,9.59Z"/></g></g></svg>